<svg xmlns="http://www.w3.org/2000/svg" width="121" height="37" viewBox="0 0 121 37" fill="none"><path d="M52.2617 26V8.86719H55.0625V23.5977H62.3164V26H52.2617ZM67.7305 26H64.9766V13.0391H67.7305V26ZM64.8125 9.60547C64.8125 9.11328 64.9453 8.73438 65.2109 8.46875C65.4844 8.20312 65.8711 8.07031 66.3711 8.07031C66.8555 8.07031 67.2305 8.20312 67.4961 8.46875C67.7695 8.73438 67.9062 9.11328 67.9062 9.60547C67.9062 10.0742 67.7695 10.4453 67.4961 10.7188C67.2305 10.9844 66.8555 11.1172 66.3711 11.1172C65.8711 11.1172 65.4844 10.9844 65.2109 10.7188C64.9453 10.4453 64.8125 10.0742 64.8125 9.60547ZM76.5078 24.0078C77.1797 24.0078 77.8516 23.9023 78.5234 23.6914V25.7656C78.2188 25.8984 77.8242 26.0078 77.3398 26.0938C76.8633 26.1875 76.3672 26.2344 75.8516 26.2344C73.2422 26.2344 71.9375 24.8594 71.9375 22.1094V15.125H70.168V13.9062L72.0664 12.8984L73.0039 10.1562H74.7031V13.0391H78.3945V15.125H74.7031V22.0625C74.7031 22.7266 74.8672 23.2188 75.1953 23.5391C75.5312 23.8516 75.9688 24.0078 76.5078 24.0078ZM86.7852 26.2344C84.7695 26.2344 83.1914 25.6484 82.0508 24.4766C80.918 23.2969 80.3516 21.6758 80.3516 19.6133C80.3516 17.4961 80.8789 15.832 81.9336 14.6211C82.9883 13.4102 84.4375 12.8047 86.2812 12.8047C87.9922 12.8047 89.3438 13.3242 90.3359 14.3633C91.3281 15.4023 91.8242 16.832 91.8242 18.6523V20.1406H83.1875C83.2266 21.3984 83.5664 22.3672 84.207 23.0469C84.8477 23.7188 85.75 24.0547 86.9141 24.0547C87.6797 24.0547 88.3906 23.9844 89.0469 23.8438C89.7109 23.6953 90.4219 23.4531 91.1797 23.1172V25.3555C90.5078 25.6758 89.8281 25.9023 89.1406 26.0352C88.4531 26.168 87.668 26.2344 86.7852 26.2344ZM86.2812 14.8906C85.4062 14.8906 84.7031 15.168 84.1719 15.7227C83.6484 16.2773 83.3359 17.0859 83.2344 18.1484H89.1172C89.1016 17.0781 88.8438 16.2695 88.3438 15.7227C87.8438 15.168 87.1562 14.8906 86.2812 14.8906ZM100.18 26.2344C98.2188 26.2344 96.7266 25.6641 95.7031 24.5234C94.6875 23.375 94.1797 21.7305 94.1797 19.5898C94.1797 17.4102 94.7109 15.7344 95.7734 14.5625C96.8438 13.3906 98.3867 12.8047 100.402 12.8047C101.77 12.8047 103 13.0586 104.094 13.5664L103.262 15.7812C102.098 15.3281 101.137 15.1016 100.379 15.1016C98.1367 15.1016 97.0156 16.5898 97.0156 19.5664C97.0156 21.0195 97.293 22.1133 97.8477 22.8477C98.4102 23.5742 99.2305 23.9375 100.309 23.9375C101.535 23.9375 102.695 23.6328 103.789 23.0234V25.4258C103.297 25.7148 102.77 25.9219 102.207 26.0469C101.652 26.1719 100.977 26.2344 100.18 26.2344ZM118.238 26H115.473V18.0312C115.473 17.0312 115.27 16.2852 114.863 15.793C114.465 15.3008 113.828 15.0547 112.953 15.0547C111.797 15.0547 110.945 15.4023 110.398 16.0977C109.859 16.7852 109.59 17.9414 109.59 19.5664V26H106.836V7.76562H109.59V12.3945C109.59 13.1367 109.543 13.9297 109.449 14.7734H109.625C110 14.1484 110.52 13.6641 111.184 13.3203C111.855 12.9766 112.637 12.8047 113.527 12.8047C116.668 12.8047 118.238 14.3867 118.238 17.5508V26Z" fill="white"></path><path d="M17.416 13.0801C17.416 15.4648 15.4648 17.416 13.0801 17.416H4.33594C1.95117 17.416 0 15.4648 0 13.0801V4.33594C0 1.95117 1.95117 0 4.33594 0H13.0801C15.4648 0 17.416 1.95117 17.416 4.33594V13.0801Z" fill="#1545F1"></path><path d="M37 32.6641C37 35.0488 35.0488 37 32.6641 37H23.9199C21.5352 37 19.584 35.0488 19.584 32.6641V23.9199C19.584 21.5352 21.5352 19.584 23.9199 19.584H32.6641C35.0488 19.584 37 21.5352 37 23.9199V32.6641Z" fill="#1545F1"></path><path d="M1.27344 35.7261C2.05933 36.512 3.14331 36.9998 4.33569 36.9998H13.0798C15.4646 36.9998 17.4158 35.0486 17.4158 32.6638V23.9197C17.4158 20.3334 20.3334 17.4158 23.9197 17.4158H32.6638C35.0486 17.4158 36.9998 15.4646 36.9998 13.0798V4.33569C36.9998 3.14331 36.512 2.05933 35.7261 1.27344H34.6421L1.27344 34.6421V35.7261Z" fill="white"></path><path d="M32.6641 0H23.9199C21.5352 0 19.584 1.95117 19.584 4.33594V13.0801C19.584 16.6663 16.6663 19.584 13.0801 19.584H4.33594C1.95117 19.584 0 21.5352 0 23.9199V32.6641C0 33.8564 0.487793 34.9404 1.27368 35.7263L35.7263 1.27368C34.9404 0.487793 33.8564 0 32.6641 0Z" fill="white"></path></svg>